<svg id="eQCS35nbpyH1" xmlns="http://www.w3.org/2000/svg" xmlns:xlink="http://www.w3.org/1999/xlink" viewBox="0 0 24 24" shape-rendering="geometricPrecision" text-rendering="geometricPrecision"><path d="M21,14c-.552285,0-1,.447715-1,1v4c0,.552285-.447715,1-1,1h-14c-.552285,0-1-.447715-1-1v-4c0-.552285-.447715-1-1-1s-1,.447715-1,1v4c0,1.656854,1.343146,3,3,3h14c1.656854,0,3-1.343146,3-3v-4c0-.552285-.447715-1-1-1Zm-9.71,1.71c.095104.091041.207249.162406.33.21.24204.106977.51796.106977.76,0c.122751-.047594.234896-.118959.33-.21l4-4c.392122-.392122.392122-1.027878,0-1.42s-1.027878-.392122-1.42,0L13,12.59L13,3c0-.552285-.447715-1-1-1s-1,.447715-1,1v9.59l-2.29-2.3c-.392122-.392122-1.027878-.392122-1.42,0s-.392122,1.027878,0,1.42Z" fill="#fff"/></svg>
