<svg id="e30deSlwJc11" xmlns="http://www.w3.org/2000/svg" xmlns:xlink="http://www.w3.org/1999/xlink" viewBox="0 0 24 24" shape-rendering="geometricPrecision" text-rendering="geometricPrecision"><path d="M19.91,15.51h-4.53c-.552285,0-1,.447715-1,1s.447715,1,1,1h2.4c-2.2566,2.358227-5.719554,3.109074-8.750223,1.897247s-5.021234-4.143291-5.029777-7.407247c0-.552285-.447715-1-1-1s-1,.447715-1,1c.010805,3.991211,2.39389,7.593789,6.062742,9.165223s7.920797.810755,10.817258-1.935223v1.77c0,.552285.447715,1,1,1s1-.447715,1-1v-4.5c-.005128-.536893-.433324-.973917-.97-.99ZM12,2c-2.563614.007312-5.02651.998914-6.88,2.77v-1.77c0-.552285-.447715-1-1-1s-1,.447715-1,1v4.5c0,.552285.447715,1,1,1h4.5c.552285,0,1-.447715,1-1s-.447715-1-1-1h-2.4c2.255337-2.356934,5.715859-3.108398,8.745606-1.899138s5.021792,4.137003,5.034394,7.399138c0,.552285.447715,1,1,1s1-.447715,1-1C22,6.477153,17.522847,2,12,2Z" fill="#fff"/></svg>
